<svg width="78" height="70" viewBox="0 0 78 70" fill="none" xmlns="http://www.w3.org/2000/svg">
<g clip-path="url(#clip0_2410_657)">
<path fill-rule="evenodd" clip-rule="evenodd" d="M16.9023 2.27804L38.735 0L60.5691 2.27804L77.473 24.6735L38.7365 69.195L0 24.6735L16.9023 2.27804Z" fill="#FDB300"/>
<path fill-rule="evenodd" clip-rule="evenodd" d="M15.6908 24.9429L38.7365 69.195L0 24.9429H15.6908Z" fill="#EA6C00"/>
<path fill-rule="evenodd" clip-rule="evenodd" d="M61.7867 24.9429L38.7395 69.195L77.476 24.9429H61.7867Z" fill="#EA6C00"/>
<path fill-rule="evenodd" clip-rule="evenodd" d="M15.3394 24.9429H61.3392L38.3393 69.195L15.3394 24.9429Z" fill="#FDAD00"/>
<path fill-rule="evenodd" clip-rule="evenodd" d="M37.9359 0L16.528 2.30239L15.3394 24.9428L37.9359 0Z" fill="#FDD231"/>
<path fill-rule="evenodd" clip-rule="evenodd" d="M38.7304 0L60.1383 2.30239L61.3269 24.9428L38.7304 0Z" fill="#FDD231"/>
<path fill-rule="evenodd" clip-rule="evenodd" d="M77.4761 24.9429L60.5279 2.41357L61.7441 24.9429H77.4761Z" fill="#FDAD00"/>
<path fill-rule="evenodd" clip-rule="evenodd" d="M0 24.9429L16.9466 2.41357L15.7305 24.9429H0Z" fill="#FDAD00"/>
<path fill-rule="evenodd" clip-rule="evenodd" d="M38.3393 0L15.3394 24.9428H61.3392L38.3393 0Z" fill="#FEEEB7"/>
</g>
<defs>
<clipPath id="clip0_2410_657">
<rect width="77.3043" height="70" fill="white"/>
</clipPath>
</defs>
</svg>
