<svg width="72" height="70" viewBox="0 0 72 70" fill="none" xmlns="http://www.w3.org/2000/svg">
<g clip-path="url(#clip0_2410_671)">
<path d="M2.99927 2.99817H68.982V67.0021H2.99927V2.99817Z" fill="#2E001E"/>
<path d="M0 0.00732422V69.9929H71.9811V0.00732422H0ZM2.99921 2.99816H68.9819V67.0021H2.99921V2.99816Z" fill="#FF2BC2"/>
<path d="M52.2763 29.4072C51.8264 29.1979 51.2566 29.1082 50.5368 29.1082C46.7578 29.1082 44.2384 32.0093 44.2384 36.8245C44.2384 42.3277 46.8177 44.5409 50.1769 44.5409C50.8967 44.5409 51.6765 44.4512 52.2463 44.2119V29.4072H52.2763ZM38.8398 37.0638C38.8398 30.0951 43.3387 24.6518 50.7167 24.6518C51.3466 24.6518 51.6765 24.6518 52.2763 24.7116V16.9354C52.2763 16.756 52.4263 16.6364 52.5762 16.6364H57.405C57.6449 16.6364 57.7049 16.7261 57.7049 16.8756V44.2119C57.7049 45.0194 57.7049 46.0363 57.8548 47.1429C57.8548 47.3523 57.8549 47.3822 57.6749 47.4719C55.1556 48.6682 52.5162 49.2066 49.9969 49.2066C43.4886 49.2066 38.8398 45.1989 38.8398 37.0638ZM28.6125 32.2186L37.0103 48.4589C37.1603 48.6982 37.0703 48.9374 36.8304 48.9374H31.6117C31.2818 48.9374 31.1319 48.8477 30.9819 48.5486C29.0624 44.6007 27.1129 40.5033 25.1034 36.2563H25.0435C23.2439 40.264 21.2644 44.6306 19.3449 48.5785C19.195 48.8178 19.045 48.9075 18.8051 48.9075H13.8264C13.5265 48.9075 13.4965 48.6682 13.6464 48.4888L21.8643 32.7271L13.9164 17.0551C13.7364 16.8158 13.9164 16.6064 14.1263 16.6064H19.285C19.5849 16.6064 19.7348 16.6663 19.8248 16.9354C21.7143 20.9133 23.6338 24.8313 25.4334 28.839H25.4933C27.2329 24.8911 29.1524 20.9133 30.9819 16.9953C31.1319 16.756 31.2218 16.6064 31.5218 16.6064H36.3505C36.5904 16.6064 36.6804 16.7859 36.5304 17.0551L28.6125 32.2186Z" fill="#FF2BC2"/>
</g>
<defs>
<clipPath id="clip0_2410_671">
<rect width="71.9811" height="70" fill="white"/>
</clipPath>
</defs>
</svg>
